<svg xmlns="http://www.w3.org/2000/svg" viewBox="0 0 512 512">
  <!-- Fielder catching -->
  <circle cx="200" cy="150" r="40" fill="#4ecdc4" stroke="#1a535c" stroke-width="3"/>
  <line x1="200" y1="190" x2="200" y2="320" stroke="#1a535c" stroke-width="8"/>
  <line x1="200" y1="220" x2="150" y2="240" stroke="#1a535c" stroke-width="8"/>
  <line x1="200" y1="220" x2="250" y2="240" stroke="#1a535c" stroke-width="8"/>
  <line x1="200" y1="320" x2="170" y2="400" stroke="#1a535c" stroke-width="8"/>
  <line x1="200" y1="320" x2="230" y2="400" stroke="#1a535c" stroke-width="8"/>
  
  <!-- Ball being caught -->
  <circle cx="150" cy="240" r="25" fill="#ff6b6b" stroke="#1a535c" stroke-width="3"/>
  
  <!-- Kicker running -->
  <circle cx="350" cy="200" r="35" fill="#ffbe0b" stroke="#1a535c" stroke-width="3"/>
  <line x1="350" y1="235" x2="350" y2="340" stroke="#1a535c" stroke-width="7"/>
  <line x1="350" y1="260" x2="310" y2="300" stroke="#1a535c" stroke-width="7"/>
  <line x1="350" y1="260" x2="390" y2="300" stroke="#1a535c" stroke-width="7"/>
  <line x1="350" y1="340" x2="320" y2="400" stroke="#1a535c" stroke-width="7"/>
  <line x1="350" y1="340" x2="380" y2="400" stroke="#1a535c" stroke-width="7"/>

  <!-- Motion lines -->
  <path d="M320,200 Q 300,180 290,170" fill="none" stroke="#ffbe0b" stroke-width="3" stroke-dasharray="5,3"/>
  <path d="M330,180 Q 310,160 300,150" fill="none" stroke="#ffbe0b" stroke-width="3" stroke-dasharray="5,3"/>
  <path d="M340,170 Q 320,150 310,140" fill="none" stroke="#ffbe0b" stroke-width="3" stroke-dasharray="5,3"/>
  
  <!-- Ground line -->
  <line x1="50" y1="400" x2="462" y2="400" stroke="#1a535c" stroke-width="4"/>
  
  <!-- X mark for kicker out -->
  <line x1="350" y1="170" x2="380" y2="200" stroke="#ff6b6b" stroke-width="5"/>
  <line x1="380" y1="170" x2="350" y2="200" stroke="#ff6b6b" stroke-width="5"/>
  
  <!-- Labels -->
  <text x="350" y="150" font-size="18" text-anchor="middle" fill="#1a535c" font-weight="bold">OUT!</text>
</svg>
